<svg width="192" height="82" viewBox="0 0 192 82" fill="none" xmlns="http://www.w3.org/2000/svg">
<path d="M108.257 49.7688H120.343V53.473H103.206V50.143L115.254 31.173H103.206V27.4688H120.343V30.7988L108.257 49.7688ZM143.901 42.6598C143.901 43.433 143.851 44.1315 143.751 44.7551H127.999C128.124 46.4014 128.735 47.7234 129.832 48.7212C130.93 49.7189 132.277 50.2178 133.873 50.2178C136.168 50.2178 137.789 49.2575 138.737 47.3368H143.339C142.716 49.2325 141.581 50.7915 139.935 52.0138C138.313 53.2111 136.293 53.8098 133.873 53.8098C131.903 53.8098 130.132 53.3732 128.56 52.5002C127.014 51.6022 125.791 50.355 124.893 48.7586C124.02 47.1372 123.584 45.2664 123.584 43.1462C123.584 41.0259 124.008 39.1676 124.856 37.5712C125.729 35.9498 126.939 34.7026 128.485 33.8295C130.057 32.9565 131.853 32.52 133.873 32.52C135.819 32.52 137.552 32.944 139.074 33.7921C140.596 34.6402 141.78 35.8375 142.629 37.3841C143.477 38.9057 143.901 40.6642 143.901 42.6598ZM139.448 41.3128C139.423 39.7413 138.862 38.4816 137.764 37.5337C136.667 36.5859 135.307 36.1119 133.686 36.1119C132.214 36.1119 130.955 36.5859 129.907 37.5337C128.859 38.4567 128.236 39.7164 128.036 41.3128H139.448ZM156.068 49.6566L161.905 32.8567H166.432L158.575 53.473H153.486L145.666 32.8567H150.231L156.068 49.6566ZM178.599 53.8098C176.653 53.8098 174.895 53.3732 173.323 52.5002C171.752 51.6022 170.517 50.355 169.619 48.7586C168.721 47.1372 168.272 45.2664 168.272 43.1462C168.272 41.0509 168.734 39.1925 169.656 37.5712C170.579 35.9498 171.839 34.7026 173.435 33.8295C175.032 32.9565 176.815 32.52 178.786 32.52C180.757 32.52 182.54 32.9565 184.137 33.8295C185.733 34.7026 186.993 35.9498 187.916 37.5712C188.838 39.1925 189.3 41.0509 189.3 43.1462C189.3 45.2415 188.826 47.0998 187.878 48.7212C186.93 50.3425 185.633 51.6022 183.987 52.5002C182.365 53.3732 180.57 53.8098 178.599 53.8098ZM178.599 50.1056C179.696 50.1056 180.719 49.8437 181.667 49.3198C182.64 48.796 183.426 48.0103 184.024 46.9626C184.623 45.915 184.922 44.6428 184.922 43.1462C184.922 41.6495 184.635 40.3898 184.062 39.3671C183.488 38.3195 182.727 37.5337 181.779 37.0099C180.831 36.4861 179.809 36.2242 178.711 36.2242C177.614 36.2242 176.591 36.4861 175.643 37.0099C174.72 37.5337 173.984 38.3195 173.435 39.3671C172.887 40.3898 172.612 41.6495 172.612 43.1462C172.612 45.3662 173.174 47.0873 174.296 48.3096C175.443 49.5069 176.878 50.1056 178.599 50.1056Z" fill="white"/>
<rect opacity="0.2" width="74.8323" height="74.8323" rx="37.4161" fill="white"/>
<rect x="32.7393" y="31.1801" width="49.8882" height="49.8882" rx="24.9441" fill="white"/>
</svg>
